<mxfile host="app.diagrams.net" modified="2023-09-13T02:30:44.389Z" agent="Mozilla/5.0 (Windows NT 10.0; Win64; x64) AppleWebKit/537.36 (KHTML, like Gecko) Chrome/114.0.0.0 Safari/537.36" etag="3r1a9gwhKRE8sy3szEPy" version="21.7.4" type="github">
  <diagram name="第 1 页" id="U64tTNC8pafo7gbhOktx">
    <mxGraphModel dx="1050" dy="581" grid="1" gridSize="10" guides="1" tooltips="1" connect="1" arrows="1" fold="1" page="1" pageScale="1" pageWidth="827" pageHeight="1169" math="0" shadow="0">
      <root>
        <mxCell id="0" />
        <mxCell id="1" parent="0" />
        <mxCell id="HIIYdygdM68XpSPuGQnC-6" value="" style="rounded=0;whiteSpace=wrap;html=1;fillColor=#dae8fc;strokeColor=#6c8ebf;" vertex="1" parent="1">
          <mxGeometry x="30" y="678" width="230" height="372" as="geometry" />
        </mxCell>
        <mxCell id="HIIYdygdM68XpSPuGQnC-7" value="V1020230913102011__测试脚本.sql" style="text;html=1;align=center;verticalAlign=middle;resizable=0;points=[];autosize=1;strokeColor=none;fillColor=none;" vertex="1" parent="1">
          <mxGeometry x="36" y="690" width="220" height="30" as="geometry" />
        </mxCell>
        <mxCell id="HIIYdygdM68XpSPuGQnC-16" style="edgeStyle=orthogonalEdgeStyle;rounded=0;orthogonalLoop=1;jettySize=auto;html=1;entryX=0;entryY=0.5;entryDx=0;entryDy=0;" edge="1" parent="1" source="HIIYdygdM68XpSPuGQnC-8" target="HIIYdygdM68XpSPuGQnC-14">
          <mxGeometry relative="1" as="geometry" />
        </mxCell>
        <mxCell id="HIIYdygdM68XpSPuGQnC-8" value="V1020230913102012__测试脚本2.sql" style="text;html=1;align=center;verticalAlign=middle;resizable=0;points=[];autosize=1;strokeColor=none;fillColor=none;" vertex="1" parent="1">
          <mxGeometry x="36" y="730" width="220" height="30" as="geometry" />
        </mxCell>
        <mxCell id="HIIYdygdM68XpSPuGQnC-9" value="V1020230913102013__测试脚本3.sql" style="text;html=1;align=center;verticalAlign=middle;resizable=0;points=[];autosize=1;strokeColor=none;fillColor=none;" vertex="1" parent="1">
          <mxGeometry x="36" y="770" width="220" height="30" as="geometry" />
        </mxCell>
        <mxCell id="HIIYdygdM68XpSPuGQnC-10" value="主分支" style="text;html=1;align=center;verticalAlign=middle;resizable=0;points=[];autosize=1;strokeColor=none;fillColor=none;fontStyle=1" vertex="1" parent="1">
          <mxGeometry x="101" y="648" width="60" height="30" as="geometry" />
        </mxCell>
        <mxCell id="HIIYdygdM68XpSPuGQnC-11" value="V1020230913102014__测试脚本4.sql" style="text;html=1;align=center;verticalAlign=middle;resizable=0;points=[];autosize=1;strokeColor=none;fillColor=none;" vertex="1" parent="1">
          <mxGeometry x="36" y="813" width="220" height="30" as="geometry" />
        </mxCell>
        <mxCell id="HIIYdygdM68XpSPuGQnC-18" style="edgeStyle=orthogonalEdgeStyle;rounded=0;orthogonalLoop=1;jettySize=auto;html=1;entryX=0;entryY=0.5;entryDx=0;entryDy=0;" edge="1" parent="1" source="HIIYdygdM68XpSPuGQnC-12" target="HIIYdygdM68XpSPuGQnC-17">
          <mxGeometry relative="1" as="geometry" />
        </mxCell>
        <mxCell id="HIIYdygdM68XpSPuGQnC-12" value="V1020230913102015__测试脚本5.sql" style="text;html=1;align=center;verticalAlign=middle;resizable=0;points=[];autosize=1;strokeColor=none;fillColor=none;" vertex="1" parent="1">
          <mxGeometry x="36" y="850" width="220" height="30" as="geometry" />
        </mxCell>
        <mxCell id="HIIYdygdM68XpSPuGQnC-13" value="V1020230913102016__测试脚本6.sql" style="text;html=1;align=center;verticalAlign=middle;resizable=0;points=[];autosize=1;strokeColor=none;fillColor=none;" vertex="1" parent="1">
          <mxGeometry x="36" y="890" width="220" height="30" as="geometry" />
        </mxCell>
        <mxCell id="HIIYdygdM68XpSPuGQnC-14" value="" style="rounded=0;whiteSpace=wrap;html=1;fillColor=#fff2cc;strokeColor=#d6b656;" vertex="1" parent="1">
          <mxGeometry x="360" y="678" width="200" height="122" as="geometry" />
        </mxCell>
        <mxCell id="HIIYdygdM68XpSPuGQnC-17" value="" style="rounded=0;whiteSpace=wrap;html=1;fillColor=#fff2cc;strokeColor=#d6b656;" vertex="1" parent="1">
          <mxGeometry x="360" y="860" width="200" height="140" as="geometry" />
        </mxCell>
        <mxCell id="HIIYdygdM68XpSPuGQnC-19" value="V1020230913102012版本的补丁" style="text;html=1;align=center;verticalAlign=middle;resizable=0;points=[];autosize=1;strokeColor=none;fillColor=none;" vertex="1" parent="1">
          <mxGeometry x="360" y="648" width="200" height="30" as="geometry" />
        </mxCell>
        <mxCell id="HIIYdygdM68XpSPuGQnC-20" value="V1020230913102015版本的补丁" style="text;html=1;align=center;verticalAlign=middle;resizable=0;points=[];autosize=1;strokeColor=none;fillColor=none;" vertex="1" parent="1">
          <mxGeometry x="360" y="830" width="200" height="30" as="geometry" />
        </mxCell>
      </root>
    </mxGraphModel>
  </diagram>
</mxfile>
